<?xml version="1.0" encoding="utf-8"?>
<!-- Generator: Adobe Illustrator 21.0.0, SVG Export Plug-In . SVG Version: 6.00 Build 0)  -->
<svg version="1.1" id="Capa_1" xmlns="http://www.w3.org/2000/svg" xmlns:xlink="http://www.w3.org/1999/xlink" x="0px" y="0px"
	 viewBox="0 0 64 64" style="enable-background:new 0 0 64 64;" xml:space="preserve">
<style type="text/css">
	.st0{fill:#FFFFFF;}
</style>
<path class="st0" d="M63.3,44.3L59.5,43c-0.5-0.2-1.1,0.1-1.3,0.6s-0.5,0.9-0.9,1.3c-1,0.9-1.7,2.1-1.8,3.5
	c-0.1,1.2-0.8,2.2-1.9,2.6c-1.2,0.5-2.2,1.5-2.7,2.7c-0.4,1.1-1.4,1.8-2.6,1.9c-1.3,0.1-2.6,0.7-3.5,1.8c-0.1,0.1-0.2,0.2-0.4,0.3
	L44,56.4c2.4-0.3,4.3-2.4,4.3-4.9c0-2.8-2.2-5-5-5c-0.9,0-1.7,0.2-2.4,0.6L38,38l16.8,5.6c0.5,0.2,1.1-0.1,1.3-0.6s-0.1-1.1-0.6-1.3
	l-18.7-6.2c-0.4-0.1-0.8,0-1,0.2c-0.3,0.3-0.4,0.7-0.2,1l7.6,22.8l1.3,3.8c0.1,0.4,0.5,0.7,0.9,0.7c0.1,0,0.2,0,0.3-0.1
	C54.3,61,61.2,54.2,64,45.6C64.1,45.1,63.8,44.5,63.3,44.3z M43.4,48.4c1.7,0,3,1.3,3,3c0,1.6-1.3,3-2.9,3L41.7,49
	C42.2,48.6,42.8,48.4,43.4,48.4z M45.9,61.7l-0.7-2c0.5-0.3,0.9-0.6,1.2-1c0.5-0.6,1.3-1,2.1-1.1c1.9-0.2,3.6-1.3,4.3-3.1
	c0.3-0.7,0.9-1.4,1.7-1.7c1.8-0.7,3-2.4,3.1-4.3c0.1-0.8,0.4-1.6,1.1-2.1c0.4-0.3,0.7-0.8,1-1.2l2,0.7C59,53.2,53.2,59,45.9,61.7z
	 M42.3,41l1,2c0.2,0.5,0,1.1-0.4,1.3c-0.1,0.1-0.3,0.1-0.4,0.1c-0.4,0-0.7-0.2-0.9-0.6l-1-2c-0.2-0.5,0-1.1,0.4-1.3
	C41.5,40.3,42.1,40.5,42.3,41z M49.4,44.1c0.5,0.2,0.7,0.8,0.4,1.3C49.7,45.8,49.4,46,49,46c-0.2,0-0.3,0-0.4-0.1l-2-1
	c-0.5-0.2-0.7-0.8-0.4-1.3s0.8-0.7,1.3-0.4L49.4,44.1z M53.4,46.1c0.5,0.2,0.7,0.8,0.4,1.3l-1,2C52.7,49.8,52.4,50,52,50
	c-0.2,0-0.3,0-0.4-0.1c-0.5-0.2-0.7-0.8-0.4-1.3l1-2C52.4,46.1,53,45.9,53.4,46.1z M38.8,55.2c0.1,0.3,0.1,0.5-0.1,0.8
	c-0.1,0.2-0.3,0.4-0.6,0.5c-3,1-6.1,1.5-9.2,1.5C13,58,0,45,0,29S13,0,29,0s29,13,29,29c0,3.1-0.5,6.2-1.5,9.2
	c-0.1,0.3-0.3,0.5-0.5,0.6s-0.5,0.1-0.8,0.1l-22.8-7.6c-0.4-0.1-0.8,0-1,0.2c-0.3,0.3-0.4,0.7-0.2,1l5.1,15.2
	c0.2,0.5-0.1,1.1-0.6,1.3s-1.1-0.1-1.3-0.6l-5.1-15.2C29,32,29.2,30.8,30,30s2-1.1,3.1-0.7l0.8,0.3c0.1-0.5,0.1-1.1-0.1-1.6
	c-0.4-1-1.2-1.8-2.2-1.9c-0.9-0.2-1.8,0.1-2.5,0.6C28.4,27.3,28,28.1,28,29c0,0.6-0.4,1-1,1s-1-0.4-1-1c0-1.5,0.7-2.9,1.8-3.8
	c1.1-1,2.7-1.3,4.1-1.1c1.7,0.3,3.2,1.6,3.8,3.2c0.3,1,0.4,1.9,0.1,2.9l19.1,6.4c0.7-2.5,1.1-5,1.1-7.6C56,14.1,43.9,2,29,2
	S2,14.1,2,29s12.1,27,27,27c2.6,0,5.1-0.4,7.6-1.1l-0.7-2c-0.7,0.1-1.3,0.1-2-0.1c-0.8-0.2-1.6-0.1-2.3,0.4c-1.6,1-3.7,1-5.3,0
	c-0.7-0.4-1.5-0.6-2.3-0.4c-1.9,0.4-3.8-0.2-5-1.6c-0.5-0.6-1.3-1-2.1-1.1c-1.9-0.2-3.6-1.3-4.3-3.1c-0.3-0.7-0.9-1.4-1.7-1.7
	c-1.8-0.7-3-2.4-3.1-4.3c-0.1-0.8-0.4-1.6-1.1-2.1c-1.5-1.2-2.1-3.2-1.6-5c0.2-0.8,0.1-1.6-0.4-2.3c-1-1.6-1-3.7,0-5.3
	c0.4-0.7,0.6-1.5,0.4-2.3c-0.4-1.9,0.2-3.8,1.6-5c0.6-0.5,1-1.3,1.1-2.1c0.2-1.9,1.3-3.6,3.1-4.3c0.7-0.3,1.4-0.9,1.7-1.7
	c0.7-1.8,2.4-3,4.3-3.1c0.8-0.1,1.6-0.4,2.1-1.1c1.2-1.5,3.2-2.1,5-1.6c0.8,0.2,1.6,0.1,2.3-0.4c1.6-1,3.7-1,5.3,0
	c0.7,0.4,1.5,0.6,2.3,0.4c1.9-0.4,3.8,0.2,5,1.6c0.5,0.6,1.3,1,2.1,1.1c1.9,0.2,3.6,1.3,4.3,3.1c0.3,0.7,0.9,1.4,1.7,1.7
	c1.8,0.7,3,2.4,3.1,4.3c0.1,0.8,0.4,1.6,1.1,2.1c1.5,1.2,2.1,3.2,1.6,5c-0.2,0.8-0.1,1.6,0.4,2.3c1,1.6,1,3.7,0,5.3
	c-0.3,0.5-0.9,0.6-1.4,0.3s-0.6-0.9-0.3-1.4c0.6-1,0.6-2.2,0-3.2c-0.7-1.2-0.9-2.5-0.6-3.8c0.3-1.1-0.1-2.3-1-3.1
	c-1-0.9-1.7-2.1-1.8-3.5c-0.1-1.2-0.8-2.2-1.9-2.6c-1.2-0.5-2.2-1.5-2.7-2.7c-0.4-1.1-1.4-1.8-2.6-1.9c-1.3-0.1-2.6-0.7-3.5-1.8
	c-0.8-0.9-1.9-1.3-3.1-1C33,7.2,31.6,7,30.5,6.3c-1-0.6-2.2-0.6-3.2,0c-1.2,0.7-2.5,0.9-3.8,0.6c-1.1-0.3-2.3,0.1-3.1,1
	c-0.9,1-2.1,1.7-3.5,1.8c-1.2,0.1-2.2,0.8-2.6,1.9c-0.5,1.2-1.5,2.2-2.7,2.7c-1.1,0.4-1.8,1.4-1.9,2.6c-0.1,1.3-0.7,2.6-1.8,3.5
	c-0.9,0.8-1.3,1.9-1,3.1c0.3,1.3,0.1,2.7-0.6,3.8c-0.6,1-0.6,2.2,0,3.2C7,31.7,7.2,33,6.9,34.3c-0.3,1.1,0.1,2.3,1,3.1
	c1,0.9,1.7,2.1,1.8,3.5c0.1,1.2,0.8,2.2,1.9,2.6c1.2,0.5,2.2,1.5,2.7,2.7c0.4,1.1,1.4,1.8,2.6,1.9c1.3,0.1,2.6,0.7,3.5,1.8
	c0.8,0.9,1.9,1.3,3.1,1c1.3-0.3,2.7-0.1,3.8,0.6c1,0.6,2.2,0.6,3.2,0c1.2-0.7,2.5-0.9,3.8-0.6c0.6,0.1,1.2,0.1,1.8-0.1
	c0.3-0.1,0.5-0.1,0.8,0c0.2,0.1,0.4,0.3,0.5,0.6L38.8,55.2z M37,12c-2.5,0-5,1.4-5,4v1c0,0.6,0.4,1,1,1h1v1c0,1.7,1.3,3,3,3
	s3-1.3,3-3v-1h1c0.6,0,1-0.4,1-1v-1C42,13.4,39.5,12,37,12z M39,16c-0.6,0-1,0.4-1,1v2c0,0.6-0.4,1-1,1s-1-0.4-1-1v-2
	c0-0.6-0.4-1-1-1h-1c0-1.6,2-2,3-2s3,0.4,3,2H39z M12,23v1c0,0.6,0.4,1,1,1h1v1c0,1.7,1.3,3,3,3s3-1.3,3-3v-1h1c0.6,0,1-0.4,1-1v-1
	c0-2.6-2.5-4-5-4S12,20.4,12,23z M17,21c1,0,3,0.4,3,2h-1c-0.6,0-1,0.4-1,1v2c0,0.6-0.4,1-1,1s-1-0.4-1-1v-2c0-0.6-0.4-1-1-1h-1
	C14,21.4,16,21,17,21z M25,49c1.7,0,3-1.3,3-3v-1h1c0.6,0,1-0.4,1-1v-1c0-2.6-2.5-4-5-4s-5,1.4-5,4v1c0,0.6,0.4,1,1,1h1v1
	C22,47.7,23.3,49,25,49z M25,41c1,0,3,0.4,3,2h-1c-0.6,0-1,0.4-1,1v2c0,0.6-0.4,1-1,1s-1-0.4-1-1v-2c0-0.6-0.4-1-1-1h-1
	C22,41.4,24,41,25,41z M25,10c-2.8,0-5,2.2-5,5s2.2,5,5,5s5-2.2,5-5S27.8,10,25,10z M25,18c-1.7,0-3-1.3-3-3s1.3-3,3-3s3,1.3,3,3
	S26.7,18,25,18z M40,25c0,2.8,2.2,5,5,5s5-2.2,5-5s-2.2-5-5-5S40,22.2,40,25z M45,22c1.7,0,3,1.3,3,3s-1.3,3-3,3s-3-1.3-3-3
	S43.3,22,45,22z M21,36c0-2.8-2.2-5-5-5s-5,2.2-5,5s2.2,5,5,5S21,38.8,21,36z M16,39c-1.7,0-3-1.3-3-3s1.3-3,3-3s3,1.3,3,3
	S17.7,39,16,39z M24,32c-0.2,0-0.3,0-0.4-0.1l-2-1c-0.5-0.2-0.7-0.8-0.4-1.3c0.2-0.5,0.8-0.7,1.3-0.4l2,1c0.5,0.2,0.7,0.8,0.4,1.3
	C24.7,31.8,24.4,32,24,32z M24.1,36.6l1-2c0.2-0.5,0.8-0.7,1.3-0.4c0.5,0.2,0.7,0.8,0.4,1.3l-1,2C25.7,37.8,25.4,38,25,38
	c-0.2,0-0.3,0-0.4-0.1C24.1,37.6,23.9,37,24.1,36.6z M18.4,44.1c0.5,0.2,0.7,0.8,0.4,1.3C18.7,45.8,18.4,46,18,46
	c-0.2,0-0.3,0-0.4-0.1l-2-1c-0.5-0.2-0.7-0.8-0.4-1.3c0.2-0.5,0.8-0.7,1.3-0.4L18.4,44.1z M11.9,28.4l-1,2C10.7,30.8,10.4,31,10,31
	c-0.2,0-0.3,0-0.4-0.1c-0.5-0.2-0.7-0.8-0.4-1.3l1-2c0.2-0.5,0.8-0.7,1.3-0.4C11.9,27.4,12.1,28,11.9,28.4z M16.1,16.4l-1-2
	c-0.2-0.5,0-1.1,0.4-1.3c0.5-0.2,1.1,0,1.3,0.4l1,2c0.2,0.5,0,1.1-0.4,1.3C17.3,17,17.2,17,17,17C16.6,17,16.3,16.8,16.1,16.4z
	 M27.4,22.9l-2,1C25.3,24,25.2,24,25,24c-0.4,0-0.7-0.2-0.9-0.6c-0.2-0.5,0-1.1,0.4-1.3l2-1c0.5-0.2,1.1,0,1.3,0.4
	S27.9,22.6,27.4,22.9z M32.9,10.4C32.7,10.8,32.4,11,32,11c-0.2,0-0.3,0-0.4-0.1l-2-1c-0.5-0.2-0.7-0.8-0.4-1.3s0.8-0.7,1.3-0.4l2,1
	C32.9,9.4,33.1,10,32.9,10.4z M37.9,24.6l1,2c0.2,0.5,0,1.1-0.4,1.3C38.3,28,38.2,28,38,28c-0.4,0-0.7-0.2-0.9-0.6l-1-2
	c-0.2-0.5,0-1.1,0.4-1.3C37,23.9,37.6,24.1,37.9,24.6z"/>
</svg>
