<?xml version="1.0" encoding="utf-8"?>
<!-- Generator: Adobe Illustrator 21.0.0, SVG Export Plug-In . SVG Version: 6.00 Build 0)  -->
<svg version="1.1" id="Capa_1" xmlns="http://www.w3.org/2000/svg" xmlns:xlink="http://www.w3.org/1999/xlink" x="0px" y="0px"
	 viewBox="0 0 100 100" style="enable-background:new 0 0 100 100;" xml:space="preserve">
<style type="text/css">
	.st0{fill:#FFFFFF;}
</style>
<g>
	<path d="M71.4,40l-4.6,4.7l-0.5,0.5L54.2,41c-0.5-0.2-1,0-1.2,0.6c-0.2,0.5,0,1,0.6,1.2l11.3,4l-3.7,3.7l-13.6-4.9
		c-0.5-0.2-1,0-1.2,0.6c-0.2,0.5,0,1,0.6,1.2l12.8,4.6l-5.2,5.3l-7.7-2.7c-0.5-0.2-1,0-1.2,0.6c-0.2,0.5,0,1,0.6,1.2l6.8,2.4
		l-14,14.2c-0.1,0-0.1-0.2-0.3-0.2l-4.8-1.7c-0.5-0.2-1,0-1.2,0.6c-0.2,0.5,0,1,0.6,1.2l4.3,1.5l-1,1c-0.3,0.3-0.5,0.6-0.7,1l-4-1.4
		c-0.5-0.2-1,0-1.2,0.6c-0.2,0.5,0,1,0.6,1.2l4.7,1.7c0,0.1,0.1,0.1,0,0.2c0.4,1.1,1.5,1.9,2.7,1.9l43.6,0.6l0,0l6.6,0.1
		c1.5,0,2.8-1,3.2-2.4c0.9-3.4,1.8-10.8-2.8-22C84.5,45.7,78.5,41,75.3,39.3C74.1,38.7,72.5,39,71.4,40z M37.6,78.1
		c-0.1-0.1-0.3-0.7,0.2-1.2l17.5-17.7l0-0.1l12.9-13c0.3-0.4,0.9-0.4,1.3-0.2c2.6,1.4,7.4,5.2,11.3,14.5c3.9,9.3,3.2,15.3,2.4,18
		l0,0.1c-0.2,0.5-0.6,0.7-1.1,0.7l-43.5-0.5C37.9,78.7,37.7,78.2,37.6,78.1z M74.5,41.1c2.9,1.7,8.5,6,12.9,16.6
		c4.4,10.6,3.6,17.5,2.8,20.7c-0.2,0.5-0.7,1-1.3,1L85,79.5c0-0.1,0.1-0.2,0.1-0.3c0.9-3,1.6-9.5-2.5-19.3
		c-4.1-10-9.4-14.1-12.1-15.6c-0.1,0-0.2-0.1-0.4-0.1l2.6-2.8C73.2,40.9,73.9,40.8,74.5,41.1z"/>
	<path d="M76.1,75.7c1.3-0.6,2.3-1.5,2.8-2.8c0.5-1.2,0.5-2.7,0-4c-1.1-2.7-4.2-3.9-6.8-2.8c-1.5,0.6-2.4,1.7-2.9,3.1
		c-0.4,1.2-0.4,2.5,0.1,3.7c0.6,1.3,1.5,2.3,2.8,2.8C73.4,76.3,74.8,76.2,76.1,75.7z M71.1,72.1c-0.7-1.7,0-3.6,1.7-4.3
		c1.7-0.7,3.6,0,4.3,1.7c0.4,0.7,0.4,1.6,0.1,2.4c0,0.1,0,0.1-0.1,0.2c-0.3,0.8-0.9,1.4-1.8,1.7c-0.8,0.3-1.7,0.3-2.5,0
		C72,73.6,71.4,73,71.1,72.1z"/>
	<path d="M58.5,70.4c-1,0.4-1.6,1.2-2,2.1c-0.3,0.8-0.3,1.7,0.1,2.6c0.4,0.9,1.1,1.5,1.9,1.9c0.9,0.3,1.8,0.3,2.7-0.1
		c1.8-0.8,2.7-2.9,1.9-4.7C62.3,70.5,60.3,69.6,58.5,70.4z M61.3,73c0.2,0.4,0.1,0.8,0,1.1l0,0.1c-0.1,0.4-0.4,0.7-0.8,0.8
		c-0.4,0.2-0.8,0.1-1.2,0c-0.4-0.1-0.7-0.4-0.8-0.8c-0.3-0.8,0-1.7,0.8-2.1C60,71.8,61,72.2,61.3,73z"/>
	<path d="M71.3,62.1c1.1,0.5,2.2,0.4,3.2,0c1.1-0.4,1.9-1.3,2.3-2.3c0.5-1.1,0.4-2.2,0-3.2c-0.9-2.2-3.4-3.2-5.6-2.3
		c-1.1,0.5-1.9,1.4-2.3,2.5c-0.3,0.9-0.3,2,0.1,3C69.4,60.9,70.3,61.8,71.3,62.1z M70.8,59.2c-0.5-1.2,0.1-2.5,1.3-2.9
		c1.2-0.5,2.5,0.1,2.9,1.3c0.2,0.5,0.2,1.1,0,1.7l0,0.1c-0.2,0.5-0.7,1-1.3,1.2c-0.6,0.2-1.2,0.2-1.7,0C71.5,60.1,71,59.7,70.8,59.2
		z"/>
	<path d="M52.4,71.3c-0.4-1-1.2-1.6-2.1-2.1c-1-0.4-2-0.4-3,0c-1.1,0.4-1.8,1.3-2.1,2.2c-0.3,0.9-0.3,1.8,0,2.8
		c0.8,1.9,3.1,2.9,5,2.1C52.3,75.5,53.2,73.3,52.4,71.3z M47,73.5c-0.4-1,0-2.1,1-2.5c0.5-0.2,1-0.2,1.4,0c0.5,0.2,0.8,0.6,1.1,1
		c0.1,0.5,0.2,1,0,1.3c-0.2,0.5-0.5,0.9-1,1.2C48.6,74.9,47.5,74.5,47,73.5z"/>
	<path d="M67.3,60.2c-0.6-1.3-1.5-2.3-2.9-2.9c-1.3-0.6-2.8-0.6-4,0c-1.5,0.6-2.5,1.8-2.9,3.1c-0.4,1.2-0.4,2.5,0.1,3.8
		c1.1,2.7,4.2,4,6.9,2.9C67.1,66,68.5,62.9,67.3,60.2z M59.4,63.5c-0.7-1.7,0.1-3.7,1.8-4.4c0.8-0.3,1.8-0.3,2.6,0s1.5,1,1.8,1.8
		c0.3,0.8,0.3,1.7,0.1,2.4c-0.3,0.8-1,1.6-1.9,2C62.1,66,60.1,65.2,59.4,63.5z"/>
	<path d="M45.6,46.2c0.2-0.5,0-1-0.6-1.2L42.6,44c-0.5-0.2-1,0-1.2,0.6s0,1,0.6,1.2l2.5,0.9C44.8,46.9,45.4,46.6,45.6,46.2z"/>
	<path d="M44.6,55c0.2-0.5,0-1-0.6-1.2l-2.5-0.9c-0.5-0.2-1,0-1.2,0.6c-0.2,0.5,0,1,0.6,1.2l2.5,0.9C43.9,55.7,44.5,55.4,44.6,55z"
		/>
</g>
<rect x="6.1" y="32.9" class="st0" width="49" height="56.5"/>
<path d="M15.2,77.9L15.2,77.9c0,4.9,18.2,5,20.3,5c5.2,0,10-0.4,13.6-1.1c4.4-0.9,6.7-2.2,6.7-3.9l0,0l-1.3-34.7
	c0-0.4-0.3-0.6-0.8-0.6s-0.7,0.3-0.7,0.7l1.4,34.6c0,1.8-7.2,3.7-18.9,3.7s-18.9-1.9-18.9-3.7l1.5-34.7c0-0.4-0.3-0.7-0.7-0.7
	c-0.4,0-0.8,0.3-0.8,0.6L15.2,77.9z M24,74.8L24,74.8c-0.4,0-0.8-0.3-0.7-0.7l1.3-27.7c0-0.4,0.3-0.6,0.8-0.6c0.4,0,0.7,0.3,0.7,0.7
	l-1.4,27.8C24.6,74.6,24.4,74.8,24,74.8z M47.2,74.8c-0.3,0-0.7-0.3-0.7-0.6l-0.5-15.7c0-0.4,0.3-0.7,0.7-0.7c0.4,0,0.8,0.3,0.8,0.6
	l0.5,15.7C47.8,74.5,47.6,74.8,47.2,74.8L47.2,74.8z M14.8,35.2c0,4.1,4.2,7.4,9.2,7.4c2.1,0,4.2-0.6,5.8-1.6
	c1.6,1.1,3.6,1.6,5.8,1.6c0.8,0,1.4-0.1,2.1-0.2v0.5c0,2.5-0.7,4.9-2,6.8c-0.5,0.9-0.9,1.9-0.9,2.9c0,3.2,2.9,5.7,6.3,5.7
	c0.1,0,0.2,0,0.3,0c3.3-0.2,5.9-2.6,5.9-5.6c0-1.1-0.3-2.1-0.9-3c-1.3-2-2-4.5-2-7.1v-0.4c0.9,0.2,1.6,0.3,2.5,0.3
	c5.1,0,9.2-3.3,9.2-7.4s-4.2-7.4-9.2-7.4l0,0c-1.6,0-3-0.6-4-1.7c-1.8-2.1-4.6-3.3-7.7-3.3c-3.1,0-5.9,1.2-7.7,3.3
	c-0.9,1.1-2.3,1.7-3.8,1.7h-0.1C18.8,27.8,14.8,31.1,14.8,35.2z M16.2,35.2c0-3.3,3.5-6.1,7.8-6.1l0,0c2.1,0,3.8-0.8,5.1-2.2
	c1.4-1.7,3.8-2.8,6.6-2.8c2.6,0,5.1,1,6.6,2.8c1.2,1.4,3,2.2,5.1,2.2l0,0l0,0c4.3,0,7.8,2.7,7.8,6.1c0,3.3-3.5,6.1-7.8,6.1
	c-1.1,0-2.1-0.2-3.1-0.5c-0.1,0-0.1,0-0.2,0s-0.3,0-0.4,0.1c-0.2,0.1-0.3,0.3-0.3,0.5v1.3c0,2.8,0.8,5.5,2.2,7.7
	c0.4,0.7,0.7,1.5,0.7,2.3c0,2.3-2.1,4.2-4.6,4.4c-2.9,0.1-5.2-1.9-5.2-4.4c0-0.8,0.2-1.6,0.7-2.3c1.4-2.2,2.2-4.8,2.2-7.5v-1.3
	c0-0.2-0.1-0.4-0.3-0.5s-0.4-0.2-0.7-0.1c-0.9,0.2-1.8,0.4-2.6,0.4c-2,0-4-0.6-5.4-1.7c-0.2-0.2-0.7-0.2-0.9,0
	c-1.4,1.1-3.4,1.7-5.4,1.7C19.7,41.3,16.2,38.5,16.2,35.2z M6.1,57.7c0-0.2,0-0.4,0-0.6c0-0.2,0-0.4,0-0.6c0-2.9,0.1-7.2,2.6-9.5
	c1.2-1,2.7-1.5,4.6-1.5c0.4,0,0.7,0.3,0.7,0.7s-0.3,0.6-0.8,0.6c-1.5,0-2.6,0.3-3.5,1.1c-2.1,1.9-2.2,5.9-2.2,8.6c0,0.2,0,0.4,0,0.6
	c0,0.2,0,0.4,0,0.6c-0.1,2.7-0.1,6.7,1.9,8.6c0.9,0.8,2,1.2,3.5,1.2c0.4,0,0.7,0.3,0.7,0.7s-0.3,0.6-0.7,0.6l0,0
	c-1.9,0-3.4-0.6-4.5-1.6C6,64.9,6.1,60.6,6.1,57.7z M34.9,74.2V58.5c0-0.4,0.3-0.7,0.8-0.7c0.4,0,0.8,0.3,0.8,0.7v15.7
	c0,0.4-0.3,0.7-0.8,0.7C35.2,74.8,34.9,74.5,34.9,74.2z"/>
</svg>
