<svg xmlns="http://www.w3.org/2000/svg" xmlns:xlink="http://www.w3.org/1999/xlink" version="1.1" x="0px" y="0px" viewBox="0 0 100 100" enable-background="new 0 0 100 100" xml:space="preserve"><path d="M86.252,37.335v-0.022L85.984,36.7h-0.031l-7.811-16.574H21.839l-8.111,17.21v0.16v0.521V43.8  c0,4.334,3.471,7.862,7.776,7.975v21.072v7.027h56.64v-7.027V51.779c0.042,0,0.083,0.006,0.125,0.006  c4.401,0,7.983-3.582,7.983-7.985v-6.379c0.008-0.015,0.012-0.03,0.021-0.043L86.252,37.335z M22.998,21.954h53.984l6.914,14.672  H16.083L22.998,21.954z M70.285,38.528V43.8c0,3.395-2.762,6.156-6.156,6.156c-3.393,0-6.154-2.762-6.154-6.156v-5.272H70.285z   M56.146,38.528V43.8c0,3.395-2.762,6.156-6.156,6.156s-6.155-2.762-6.155-6.156v-5.272H56.146z M42.006,38.528V43.8  c0,3.395-2.761,6.156-6.155,6.156c-3.394,0-6.155-2.762-6.155-6.156v-5.272H42.006z M15.557,43.8v-5.272h12.311V43.8  c0,3.395-2.762,6.156-6.155,6.156C18.317,49.957,15.557,47.195,15.557,43.8z M76.315,78.047H23.332v-3.371h52.983V78.047z   M76.315,72.848H23.332V51.619c2.37-0.49,4.354-2.037,5.449-4.121c1.336,2.544,4.002,4.287,7.069,4.287  c3.068,0,5.733-1.743,7.069-4.287c1.337,2.544,4.002,4.287,7.07,4.287s5.734-1.743,7.07-4.287c1.336,2.544,4.001,4.287,7.068,4.287  c3.068,0,5.733-1.743,7.07-4.287c1.042,1.984,2.895,3.474,5.116,4.035V72.848z M84.424,43.8c0,3.395-2.762,6.156-6.155,6.156  s-6.155-2.762-6.155-6.156v-5.272h12.311V43.8z"></path></svg>