<svg xmlns="http://www.w3.org/2000/svg" xmlns:xlink="http://www.w3.org/1999/xlink" version="1.1" x="0px" y="0px" viewBox="0 0 100 100" style="enable-background:new 0 0 100 100;" xml:space="preserve"><style type="text/css">
	.st0{fill:none;stroke:#000000;stroke-width:2;stroke-linecap:round;stroke-linejoin:round;stroke-miterlimit:10;}
	.st1{fill:none;stroke:#000000;stroke-width:2;stroke-miterlimit:10;}
	.st2{fill:none;stroke:#000000;stroke-width:2;stroke-linecap:round;stroke-miterlimit:10;}
	.st3{opacity:0.1;fill:none;stroke:#000000;stroke-width:2;stroke-miterlimit:10;}
</style><path d="M24.5,49.2l6.2,2.8l0.7,0.3v13.3c0,0.6,0.4,1,1,1s1-0.4,1-1V53.2l4.9,2.3v14.9c0,0.6,0.4,1,1,1s1-0.4,1-1v-14l6.9,3.2V68  c0,0.6,0.4,1,1,1s1-0.4,1-1v-7.4l18.7,8.7c0,0.1-0.1,0.2-0.1,0.4V75c0,0.6,0.4,1,1,1s1-0.4,1-1v-4.7l1.3,0.6  c0.4,0.2,0.8,0.3,1.2,0.3v4.4c0,0.6,0.4,1,1,1s1-0.4,1-1v-5.1c0.1,0,0.1-0.1,0.2-0.1c0.9-0.8,1.3-2.1,0.9-3.3L60.8,24.5c0,0,0,0,0,0  L58.6,18c-0.5-1.5-1.9-2.4-3.5-2.3c-3.6,0.3-11.1,2-20.4,10.4c-9.2,8.4-11.7,15.8-12.3,19.5C22.3,47,23.1,48.5,24.5,49.2z   M73.2,68.8c-0.1,0.1-0.6,0.5-1.2,0.2L48.7,58.1c0,0-0.1,0-0.1,0l-17.1-8c-0.5-0.2-0.7-0.7-0.6-1.2c0.5-3,2.5-9,10.2-16  c7.7-7,13.8-8.4,16.7-8.6c0,0,0.1,0,0.1,0c0.5,0,0.9,0.3,1,0.8l14.6,42.5C73.7,68.3,73.3,68.7,73.2,68.8z M24.5,45.8  c0.6-3.4,2.9-10.3,11.7-18.3c8.8-8,15.8-9.6,19.2-9.9c0.6,0,1.2,0.3,1.4,0.9l1.3,3.8c-0.1,0-0.2,0-0.3,0c-3.2,0.2-9.8,1.7-17.9,9.1  C31.6,38.9,29.5,45.4,29,48.6c0,0.1,0,0.2,0,0.4l-3.6-1.6C24.7,47.1,24.4,46.5,24.5,45.8z"></path><path d="M57.5,32.2c-1-1.1-2.3-1.7-3.7-1.7c-1.4-0.1-2.8,0.4-3.9,1.4c-2.2,2-2.3,5.4-0.3,7.6c1.1,1.2,2.5,1.7,4,1.7  c1.3,0,2.6-0.5,3.6-1.4c1.1-1,1.7-2.3,1.7-3.7C59,34.6,58.5,33.3,57.5,32.2z M55.8,38.3c-1.4,1.3-3.5,1.2-4.8-0.2  c-1.3-1.4-1.2-3.5,0.2-4.8c0.6-0.6,1.4-0.9,2.3-0.9c0.1,0,0.1,0,0.2,0c0.9,0,1.7,0.4,2.3,1.1c0.6,0.7,0.9,1.5,0.9,2.4  C56.9,36.9,56.5,37.7,55.8,38.3z"></path><path d="M58.5,51.2c0.7,0.8,1.7,1.2,2.7,1.2c0.9,0,1.8-0.3,2.5-1c0.7-0.7,1.1-1.6,1.2-2.5c0-1-0.3-1.9-1-2.6  c-1.4-1.5-3.7-1.6-5.2-0.2C57.2,47.4,57.1,49.7,58.5,51.2z M60,47.5c0.3-0.3,0.7-0.4,1.1-0.4c0,0,0.1,0,0.1,0c0.4,0,0.8,0.2,1.1,0.5  c0.3,0.3,0.4,0.7,0.4,1.2c0,0.4-0.2,0.8-0.5,1.1c-0.7,0.6-1.7,0.6-2.3-0.1C59.3,49.2,59.4,48.1,60,47.5z"></path><path d="M46,41.6c0.1-1.2-0.4-2.3-1.1-3.1c-0.8-0.9-1.9-1.4-3-1.4c-1.2-0.1-2.3,0.4-3.1,1.1c-1.8,1.6-1.9,4.4-0.3,6.2  c0.9,0.9,2,1.4,3.2,1.4c1,0,2.1-0.4,2.9-1.1C45.5,43.8,46,42.7,46,41.6z M43.3,43.1c-1,0.9-2.5,0.8-3.3-0.2c-0.9-1-0.8-2.5,0.2-3.3  c0.4-0.4,1-0.6,1.6-0.6c0,0,0.1,0,0.1,0c0.6,0,1.2,0.3,1.6,0.8s0.6,1.1,0.6,1.7C44,42.1,43.7,42.7,43.3,43.1z"></path><path d="M61.5,56.8c-0.8,0.7-1.2,1.7-1.3,2.8c0,1.1,0.3,2.1,1,2.9c0.8,0.9,1.9,1.3,2.9,1.3c1,0,1.9-0.3,2.7-1c1.6-1.5,1.7-4,0.3-5.6  C65.6,55.4,63.1,55.3,61.5,56.8z M65.5,61.2c-0.8,0.7-2.1,0.7-2.8-0.1c-0.4-0.4-0.5-0.9-0.5-1.4c0-0.5,0.3-1,0.6-1.4  c0.4-0.3,0.9-0.5,1.3-0.5c0.5,0,1.1,0.2,1.5,0.6C66.3,59.2,66.3,60.4,65.5,61.2z"></path><path d="M45.5,46.1c-1.1,1-1.7,2.3-1.8,3.8c-0.1,1.5,0.4,2.9,1.4,3.9c1.1,1.2,2.6,1.8,4,1.8c1.3,0,2.6-0.5,3.7-1.4  c2.2-2,2.4-5.5,0.4-7.7S47.7,44,45.5,46.1z M51.5,52.7c-1.4,1.3-3.6,1.2-4.9-0.2c-0.6-0.7-0.9-1.6-0.9-2.5c0-0.9,0.4-1.8,1.1-2.4  c0.7-0.6,1.5-0.9,2.3-0.9c0.9,0,1.9,0.4,2.6,1.1C53,49.2,52.9,51.4,51.5,52.7z"></path><path d="M39.4,72.1c-0.6,0-1,0.4-1,1v2.7c0,0.6,0.4,1,1,1s1-0.4,1-1v-2.7C40.4,72.6,39.9,72.1,39.4,72.1z"></path><path d="M68.9,76.7c-0.6,0-1,0.4-1,1v2.7c0,0.6,0.4,1,1,1s1-0.4,1-1v-2.7C69.9,77.2,69.4,76.7,68.9,76.7z"></path><path d="M48.3,70c-0.6,0-1,0.4-1,1v2.7c0,0.6,0.4,1,1,1s1-0.4,1-1V71C49.3,70.4,48.8,70,48.3,70z"></path></svg>